<?xml version="1.0" encoding="iso-8859-1"?>
<!-- Uploaded to: SVG Repo, www.svgrepo.com, Generator: SVG Repo Mixer Tools -->
<svg height="800px" width="800px" version="1.1" id="Layer_1" xmlns="http://www.w3.org/2000/svg" xmlns:xlink="http://www.w3.org/1999/xlink" 
	 viewBox="0 0 512 512" xml:space="preserve">
<circle style="fill:#FFAD61;" cx="256" cy="256" r="245.801"/>
<circle style="fill:#FFE6B8;" cx="256" cy="256" r="206.024"/>
<g>
	<path style="fill:#4D3D36;" d="M256,512c-68.381,0-132.667-26.628-181.019-74.98C26.628,388.667,0,324.38,0,256
		S26.628,123.333,74.981,74.98C123.333,26.628,187.619,0,256,0s132.667,26.628,181.019,74.98C485.372,123.333,512,187.62,512,256
		s-26.628,132.667-74.981,181.02C388.667,485.372,324.381,512,256,512z M256,20.398C126.089,20.398,20.398,126.089,20.398,256
		S126.089,491.602,256,491.602S491.602,385.911,491.602,256S385.911,20.398,256,20.398z"/>
	<path style="fill:#4D3D36;" d="M256,472.223c-119.226,0-216.223-96.997-216.223-216.223S136.774,39.777,256,39.777
		S472.223,136.774,472.223,256S375.226,472.223,256,472.223z M256,60.175C148.022,60.175,60.175,148.022,60.175,256
		S148.022,451.825,256,451.825S451.825,363.978,451.825,256S363.978,60.175,256,60.175z"/>
	<path style="fill:#4D3D36;" d="M315.425,325.624c-2.611,0-5.22-0.995-7.212-2.987l-59.425-59.425
		c-1.912-1.912-2.987-4.507-2.987-7.212V134.629c0-5.633,4.567-10.199,10.199-10.199c5.632,0,10.199,4.566,10.199,10.199v117.146
		l56.437,56.436c3.983,3.983,3.983,10.441,0,14.425C320.645,324.628,318.035,325.624,315.425,325.624z"/>
	<path style="fill:#4D3D36;" d="M256,108.112c-5.632,0-10.199-4.566-10.199-10.199V86.693c0-5.633,4.567-10.199,10.199-10.199
		c5.632,0,10.199,4.566,10.199,10.199v11.219C266.199,103.545,261.632,108.112,256,108.112z"/>
	<path style="fill:#4D3D36;" d="M256,435.506c-5.632,0-10.199-4.566-10.199-10.199v-11.219c0-5.633,4.567-10.199,10.199-10.199
		c5.632,0,10.199,4.566,10.199,10.199v11.219C266.199,430.94,261.632,435.506,256,435.506z"/>
	<path style="fill:#4D3D36;" d="M425.307,266.199h-11.219c-5.632,0-10.199-4.566-10.199-10.199s4.567-10.199,10.199-10.199h11.219
		c5.632,0,10.199,4.566,10.199,10.199C435.506,261.633,430.939,266.199,425.307,266.199z"/>
	<path style="fill:#4D3D36;" d="M97.912,266.199H86.693c-5.632,0-10.199-4.566-10.199-10.199s4.567-10.199,10.199-10.199h11.219
		c5.632,0,10.199,4.566,10.199,10.199C108.112,261.633,103.544,266.199,97.912,266.199z"/>
</g>
</svg>